<svg width="40" height="40" viewBox="0 0 40 40" fill="none" xmlns="http://www.w3.org/2000/svg">
<g clip-path="url(#clip0_4_261)">
<path fill-rule="evenodd" clip-rule="evenodd" d="M21.7625 4.21337C21.4895 4.01311 21.2078 3.82351 20.918 3.6452C19.0101 2.47107 16.8226 1.82904 14.5827 1.78577H14.0936C11.8537 1.82904 9.6662 2.47107 7.75823 3.6452C5.85026 4.81934 4.29135 6.4828 3.24335 8.46282C2.19532 10.4429 1.6964 12.6674 1.79838 14.9054C1.90037 17.1433 2.59953 19.3132 3.82329 21.1898C5.04703 23.0663 6.75078 24.5811 8.75763 25.5768V29.7603C8.75763 30.13 8.90455 30.4849 9.16609 30.7463C9.4276 31.0081 9.78229 31.1549 10.1521 31.1549H18.5241C18.894 31.1549 19.2487 31.0081 19.5102 30.7463C19.7717 30.4849 19.9186 30.13 19.9186 29.7603V25.5768C21.8503 24.6184 23.5011 23.1791 24.7133 21.3993C24.2845 20.7509 23.9638 19.9991 23.7837 19.1624C23.4413 17.5722 22.2077 16.4185 20.7411 16.1591C14.2676 15.0139 14.2674 5.70111 20.7411 4.55588C21.0986 4.49265 21.4423 4.37625 21.7625 4.21337Z" fill="#FDDC5C"/>
<path fill-rule="evenodd" clip-rule="evenodd" d="M31.9318 1.8553C31.3741 -0.63064 27.8517 -0.612866 27.316 1.87543L27.2565 2.15186C26.5999 5.2022 24.1995 7.52563 21.2062 8.05515C18.646 8.50809 18.646 12.2062 21.2062 12.6591C24.1995 13.1887 26.5999 15.5121 27.2565 18.5624L27.316 18.8389C27.8517 21.3271 31.3741 21.3449 31.9318 18.859L32.0038 18.5368C32.6855 15.4983 35.0883 13.1923 38.0764 12.6637C40.6418 12.2099 40.6418 8.5044 38.0764 8.0506C35.0883 7.522 32.6855 5.216 32.0038 2.17746L31.9318 1.8553ZM20.7077 1.49359C18.6469 0.471223 16.3668 -0.0418954 14.0594 0.00267803C11.5009 0.0521049 9.00215 0.785483 6.82269 2.12668C4.64326 3.46786 2.86255 5.368 1.66541 7.62978C0.468275 9.89155 -0.101628 12.4325 0.0148642 14.9889C0.131356 17.5453 0.929995 20.024 2.32787 22.1675C3.51938 23.9946 5.10921 25.5214 6.97226 26.6368V29.7626C6.97226 30.606 7.30732 31.4149 7.90372 32.0114C8.50015 32.6077 9.30904 32.9429 10.1525 32.9429H18.5196C19.363 32.9429 20.1719 32.6077 20.7683 32.0114C21.3647 31.4149 21.6998 30.606 21.6998 29.7626V26.6398C22.9447 25.8983 24.0675 24.9728 25.0308 23.897C25.6887 23.1623 25.6264 22.0333 24.8917 21.3754C24.1569 20.7175 23.028 20.7798 22.3701 21.5146C21.4596 22.5314 20.3593 23.3691 19.1249 23.9772C18.5147 24.2778 18.1284 24.8989 18.1284 25.5791V29.3714H10.5437V25.5791C10.5437 24.9007 10.1593 24.281 9.55166 23.9795C7.83035 23.1254 6.36903 21.8261 5.31938 20.2166C4.26975 18.6071 3.67006 16.7459 3.58258 14.8264C3.49512 12.9068 3.92303 10.9988 4.82195 9.30049C5.72086 7.60215 7.05798 6.1754 8.69446 5.16832C10.331 4.16123 12.2072 3.61055 14.1284 3.57343C15.8609 3.53997 17.5731 3.92526 19.1205 4.69292C20.0039 5.13123 21.0754 4.77035 21.5137 3.88689C21.9521 3.0034 21.5912 1.93189 20.7077 1.49359ZM8.92858 36.4286C7.94235 36.4286 7.14286 37.228 7.14286 38.2143C7.14286 39.2006 7.94235 40 8.92858 40H19.6429C20.6291 40 21.4286 39.2006 21.4286 38.2143C21.4286 37.228 20.6291 36.4286 19.6429 36.4286H8.92858Z" fill="#0C098C"/>
</g>
<defs>
<clipPath id="clip0_4_261">
<rect width="40" height="40" fill="white"/>
</clipPath>
</defs>
</svg>
