<svg width="40" height="40" viewBox="0 0 40 40" fill="none" xmlns="http://www.w3.org/2000/svg">
<g clip-path="url(#clip0_4_273)">
<path fill-rule="evenodd" clip-rule="evenodd" d="M18.7892 11.3634L18.9351 11.2333C20.4019 9.9256 22.2733 9.16171 24.2359 9.06963L30.7526 8.7638L39.8797 4.55908L39.6437 23.368L31.9754 27.6451L22.4913 18.0395L32.2546 27.936L23.3161 34.5791C21.4261 36.0014 18.9096 36.0948 16.9152 34.8168L0.000171661 24.8936V5.67237L7.76954 9.28825L13.4231 8.25105C15.3387 7.89963 17.2974 8.47825 18.7607 9.82783C19.1672 10.2621 19.1697 10.9267 18.7892 11.3634Z" fill="#7AF1FF"/>
<path fill-rule="evenodd" clip-rule="evenodd" d="M38.9814 6.10864C39.8371 5.6185 40.1337 4.52741 39.6434 3.67161C39.1534 2.8158 38.0623 2.51938 37.2063 3.00953L30.2386 7.00024L24.1521 7.28587C22.554 7.36087 21.006 7.80447 19.6239 8.56933C17.7993 7.06461 15.4321 6.42418 13.1009 6.85187L8.08811 7.7715L2.67044 4.68204C1.81372 4.19347 0.723176 4.49193 0.23463 5.34864C-0.253917 6.20535 0.04454 7.2959 0.901253 7.78447L6.88491 11.1967C7.25046 11.4051 7.67786 11.4778 8.09174 11.4019L13.7453 10.3647C14.7476 10.1808 15.7749 10.3553 16.672 10.8586L13.3056 13.8598L13.2893 13.8746C11.2673 15.6922 10.9536 18.7498 12.5674 20.9407C14.3249 23.3267 17.7001 23.8012 20.0469 21.9913L22.2251 20.3114L29.3414 27.519L22.2508 32.7888L22.2423 32.7951C20.9498 33.7677 19.2459 33.8323 17.8785 32.9563L2.74926 23.2618C1.91889 22.7297 0.814399 22.9715 0.282317 23.8019C-0.249765 24.6323 -0.00794997 25.7368 0.822425 26.2689L15.9517 35.9634C18.5716 37.642 21.8982 37.5208 24.3851 35.6523L24.3897 35.6488L32.9174 29.3111C33.0911 29.182 33.2349 29.0271 33.3469 28.8557L38.908 24.8123C39.7057 24.2323 39.8823 23.1155 39.3023 22.3178C38.7223 21.5202 37.6054 21.3437 36.8077 21.9237L32.1671 25.2978L27.5513 20.6227C28.8929 20.1762 30.0866 19.3227 30.8363 18.2276C31.3934 17.4138 31.1854 16.3024 30.3714 15.7453C29.5577 15.1882 28.4463 15.3963 27.8893 16.2101C27.5675 16.6801 26.8755 17.1712 26.0272 17.3389C25.2483 17.4929 24.4444 17.3566 23.7459 16.7685L23.6564 16.6779C23.0226 16.036 22.0095 15.9676 21.2952 16.5185L17.8658 19.1632C17.1058 19.7493 16.0127 19.596 15.443 18.8226C14.918 18.1099 15.0219 17.1144 15.6823 16.5257L15.6957 16.5137L20.1234 12.5662C20.1656 12.5286 20.2083 12.4915 20.2513 12.455C20.3861 12.383 20.5139 12.2923 20.6308 12.1829C20.6633 12.1524 20.6945 12.1209 20.7243 12.0886C21.7764 11.3456 23.0229 10.9142 24.3196 10.8534L30.8363 10.5476C31.1189 10.5343 31.3943 10.454 31.64 10.3134L38.9814 6.10864Z" fill="#0C098C"/>
</g>
<defs>
<clipPath id="clip0_4_273">
<rect width="40" height="40" fill="white"/>
</clipPath>
</defs>
</svg>
