<svg width="60" height="60" viewBox="0 0 60 60" fill="none" xmlns="http://www.w3.org/2000/svg">
<path d="M45.2361 52.1122C42.7597 53.5428 40.0257 54.4718 37.1903 54.8455C34.3547 55.2195 31.4736 55.0311 28.7109 54.2913C25.9483 53.5515 23.3584 52.2747 21.0893 50.5338C18.8202 48.7929 16.9163 46.6223 15.4862 44.1454L4.59887 25.2775C3.88839 24.0279 3.701 22.5481 4.07762 21.1607C4.45428 19.7734 5.36436 18.5914 6.60924 17.8726C7.85415 17.1538 9.3328 16.9566 10.7226 17.3241C12.1123 17.6915 13.3003 18.5937 14.0274 19.8338L10.146 13.1163C9.42409 11.8657 9.22862 10.3795 9.60252 8.98468C9.97642 7.58987 10.8891 6.40075 12.1397 5.67885C13.3904 4.957 14.8766 4.76148 16.2714 5.13538C17.6662 5.50928 18.8553 6.42198 19.5772 7.67261L21.4607 10.9388C20.7502 9.68919 20.5629 8.20925 20.9395 6.82196C21.3161 5.43468 22.2262 4.2527 23.4711 3.53392C24.7161 2.81516 26.1946 2.61798 27.5844 2.98541C28.9741 3.35282 30.1622 4.25504 30.8892 5.49514L39.0548 19.6487C38.3329 18.3959 38.1383 16.9077 38.5137 15.5113C38.889 14.115 39.8038 12.925 41.0567 12.2031C42.3095 11.4813 43.7979 11.2866 45.1942 11.662C46.5905 12.0375 47.7805 12.9522 48.5023 14.205L53.2138 22.3706C56.0995 27.3725 56.8804 33.3159 55.3842 38.8936C53.8883 44.4712 50.2378 49.226 45.2361 52.1122Z" fill="#FFAD01"/>
<path d="M55.081 21.2819L50.3695 13.1164C49.3589 11.3665 47.6948 10.0896 45.7429 9.56641C43.7911 9.04326 41.7113 9.31664 39.9612 10.3265C38.9851 10.8904 38.1481 11.6662 37.5115 12.5965L32.77 4.40648C32.1007 3.24902 31.1388 2.28799 29.9807 1.61986C28.8228 0.951726 27.5093 0.599976 26.1723 0.599976C24.8353 0.599976 23.5217 0.951726 22.3637 1.61986C21.2057 2.28799 20.2437 3.24902 19.5745 4.40648C18.1827 3.31062 16.4527 2.73377 14.6818 2.77514C12.9109 2.81648 11.2096 3.47346 9.87055 4.63312C8.53149 5.79276 7.63817 7.38265 7.34422 9.12951C7.05026 10.8764 7.37398 12.6711 8.25978 14.2051L8.69255 14.9564C7.56638 15.0437 6.47429 15.3832 5.49711 15.9498C3.74694 16.9609 2.47008 18.6257 1.94738 20.5781C1.42468 22.5307 1.69899 24.6107 2.70994 26.3609L13.5973 45.2287C15.1637 47.9576 17.2554 50.3488 19.7517 52.2644C22.2478 54.1798 25.099 55.5816 28.1402 56.3883C30.175 56.9319 32.2725 57.2065 34.3786 57.2049C38.5795 57.1978 42.7051 56.0856 46.3404 53.9806C49.9759 51.8755 52.9939 48.851 55.0914 45.2111C57.1886 41.5711 58.2917 37.4434 58.2901 33.2425C58.2882 29.0414 57.1815 24.9148 55.081 21.2765L55.081 21.2819ZM53.2683 38.3316C52.2645 42.0746 50.1733 45.4359 47.2595 47.9909C44.3455 50.5456 40.7396 52.1792 36.8972 52.685C33.055 53.1907 29.1492 52.5459 25.6734 50.8319C22.1977 49.1182 19.3081 46.4125 17.3698 43.0567L6.48242 24.1888C6.06798 23.4401 5.96405 22.5582 6.19304 21.7335C6.42202 20.9088 6.96561 20.2069 7.70682 19.7789C8.44803 19.3508 9.32769 19.2309 10.1565 19.4448C10.9852 19.6586 11.6969 20.1894 12.1384 20.9227L17.3725 29.9918C17.5113 30.2474 17.6998 30.4725 17.927 30.654C18.1542 30.8356 18.4154 30.9698 18.6953 31.0485C18.9752 31.1274 19.268 31.1494 19.5565 31.1135C19.845 31.0773 20.1234 30.9837 20.3752 30.8383C20.627 30.693 20.8471 30.4984 21.0225 30.2665C21.198 30.0346 21.3252 29.77 21.3967 29.4883C21.4682 29.2063 21.4825 28.9129 21.4389 28.6255C21.3951 28.338 21.2943 28.0623 21.1423 27.8144L12.0296 12.0277C11.8057 11.6559 11.6582 11.2432 11.5957 10.8138C11.5331 10.3845 11.5567 9.94685 11.6652 9.52671C11.7736 9.10655 11.9647 8.71216 12.2273 8.36669C12.4898 8.0212 12.8186 7.73149 13.1944 7.51448C13.5702 7.29745 13.9854 7.15753 14.4159 7.1028C14.8464 7.04808 15.2834 7.07969 15.7015 7.19578C16.1197 7.31187 16.5105 7.51012 16.8511 7.77893C17.1918 8.04773 17.4754 8.38174 17.6855 8.76143L26.1832 23.4594C26.322 23.715 26.5103 23.9401 26.7376 24.1216C26.9649 24.3032 27.2262 24.4373 27.506 24.516C27.7858 24.5949 28.0786 24.617 28.3672 24.5811C28.6557 24.5449 28.9341 24.4512 29.1859 24.3059C29.4377 24.1605 29.6576 23.9659 29.8332 23.734C30.0087 23.5021 30.1358 23.2376 30.2074 22.9559C30.2787 22.6739 30.2932 22.3804 30.2493 22.093C30.2058 21.8056 30.1048 21.5299 29.9529 21.2819L23.3443 9.85017C23.1205 9.4784 22.973 9.06576 22.9104 8.63636C22.8478 8.20697 22.8715 7.76937 22.9798 7.34923C23.0884 6.92906 23.2795 6.5347 23.5419 6.18921C23.8045 5.84372 24.1333 5.55401 24.5092 5.337C24.8848 5.11999 25.3002 4.98005 25.7305 4.92532C26.1611 4.87062 26.5982 4.90221 27.0163 5.0183C27.4344 5.13438 27.8252 5.33264 28.1658 5.60144C28.5065 5.87025 28.7901 6.20426 29.0003 6.58394L38.0967 22.3434C35.978 24.495 34.6699 27.3141 34.395 30.3212C34.1201 33.3283 34.8953 36.3378 36.5888 38.8378C36.9135 39.3158 37.4149 39.6451 37.9827 39.7532C38.5501 39.8615 39.1375 39.7398 39.6155 39.4149C40.0934 39.0901 40.4225 38.5888 40.5308 38.021C40.6392 37.4535 40.5172 36.8661 40.1925 36.3882C38.9418 34.5362 38.4511 32.2744 38.8215 30.0705C39.1917 27.8669 40.395 25.8897 42.1822 24.5481C42.6082 24.2289 42.9024 23.7645 43.0094 23.2427C43.1161 22.7212 43.0281 22.1785 42.7619 21.7174L40.9437 18.5601C40.7124 18.1883 40.5583 17.7738 40.4906 17.3412C40.4228 16.9086 40.4427 16.4669 40.5488 16.0421C40.6552 15.6173 40.8458 15.2183 41.1095 14.8687C41.373 14.5191 41.7042 14.2261 42.0834 14.007C42.4625 13.788 42.8817 13.6474 43.3164 13.5937C43.7508 13.5399 44.1917 13.574 44.6128 13.6941C45.0339 13.8141 45.4266 14.0176 45.7674 14.2924C46.1082 14.5673 46.3904 14.9078 46.597 15.2939L51.3085 23.4594C52.6012 25.685 53.44 28.1448 53.7764 30.6965C54.1129 33.2485 53.94 35.8416 53.2683 38.3261V38.3316ZM45.3042 2.69444C45.4506 2.13684 45.8123 1.66008 46.3099 1.36873C46.8072 1.0774 47.4 0.995226 47.958 1.14026C50.0377 1.68834 51.9876 2.64433 53.6945 3.95266C55.4014 5.26101 56.8312 6.89562 57.9008 8.76143L57.9907 8.91658C58.1426 9.16444 58.2436 9.44027 58.2871 9.72771C58.3309 10.0152 58.3165 10.3085 58.2452 10.5904C58.1736 10.8722 58.0465 11.1369 57.8709 11.3688C57.6954 11.6006 57.4754 11.795 57.2237 11.9405C56.9719 12.0859 56.6934 12.1795 56.4049 12.2156C56.1164 12.2517 55.8235 12.2296 55.5437 12.1508C55.2639 12.0719 55.0026 11.9377 54.7754 11.7562C54.5481 11.5747 54.3597 11.3496 54.2209 11.0941L54.1311 10.9389C53.3461 9.57152 52.2968 8.37398 51.0445 7.41605C49.7922 6.45811 48.3616 5.7589 46.8365 5.35912C46.2805 5.20805 45.8071 4.8428 45.52 4.34334C45.2326 3.84387 45.155 3.25094 45.3042 2.69444ZM17.1711 58.5712C16.8136 59.0244 16.2909 59.317 15.7177 59.3848C15.1446 59.4528 14.5679 59.2903 14.1145 58.9332C10.8577 56.3608 8.12293 53.1891 6.05783 49.5891C5.91483 49.3414 5.82205 49.0679 5.78473 48.7845C5.74744 48.5009 5.76636 48.2127 5.84042 47.9364C5.91448 47.6602 6.04222 47.4013 6.21633 47.1743C6.39048 46.9476 6.6076 46.7571 6.85531 46.6142C7.103 46.4713 7.37644 46.3784 7.66001 46.3412C7.94356 46.3039 8.2317 46.3226 8.50796 46.3967C8.78422 46.4707 9.04318 46.5986 9.27005 46.7728C9.49695 46.9468 9.68731 47.164 9.8303 47.4116C11.6202 50.5279 13.9889 53.2737 16.8091 55.501C17.0354 55.6782 17.2244 55.8984 17.3652 56.1488C17.506 56.3995 17.5959 56.6752 17.6295 56.9607C17.6632 57.2462 17.64 57.5353 17.5613 57.8118C17.4826 58.0881 17.35 58.3464 17.1711 58.5712Z" fill="black"/>
</svg>
